<svg xmlns="http://www.w3.org/2000/svg" xmlns:xlink="http://www.w3.org/1999/xlink" width="126" height="126" viewBox="0 0 126 126">
    <defs>
        <path id="prefix__a" d="M0 0H125.946V125.946H0z"/>
        <path id="prefix__c" d="M0 0H125.946V125.946H0z"/>
        <path id="prefix__e" d="M0 0H125.946V125.946H0z"/>
        <path id="prefix__g" d="M0 0H125.946V125.946H0z"/>
        <path id="prefix__i" d="M0 0H125.946V125.946H0z"/>
        <path id="prefix__k" d="M0 0H125.946V125.946H0z"/>
        <path id="prefix__m" d="M0 0H125.946V125.946H0z"/>
    </defs>
    <g fill="none" fill-rule="evenodd">
        <mask id="prefix__b" fill="#fff">
            <use xlink:href="#prefix__a"/>
        </mask>
        <path fill="#E50A70" fill-rule="nonzero" d="M125.946 62.973c0 34.78-28.194 62.973-62.973 62.973C28.193 125.946 0 97.752 0 62.973 0 28.193 28.194 0 62.973 0c34.78 0 62.973 28.194 62.973 62.973" mask="url(#prefix__b)"/>
        <g>
            <mask id="prefix__d" fill="#fff">
                <use xlink:href="#prefix__c"/>
            </mask>
            <path fill="#FFF" fill-rule="nonzero" d="M5.61 64.007v-.07c0-6.997 5.586-12.729 13.274-12.729 7.687 0 13.203 5.662 13.203 12.658v.07c0 6.998-5.587 12.73-13.274 12.73-7.687 0-13.204-5.662-13.204-12.659m20.749 0v-.07c0-4.22-3.132-7.736-7.545-7.736s-7.474 3.446-7.474 7.665v.07c0 4.22 3.132 7.736 7.545 7.736 4.414 0 7.474-3.445 7.474-7.665" mask="url(#prefix__d)"/>
            <mask id="prefix__f" fill="#fff">
                <use xlink:href="#prefix__e"/>
            </mask>
            <path fill="#FFF" fill-rule="nonzero" d="M34.294 65.694V54.127c0-1.512 1.21-2.708 2.74-2.708 1.53 0 2.74 1.196 2.74 2.708v11.427c0 4.009 2.028 6.083 5.374 6.083 3.345 0 5.374-2.004 5.374-5.907V54.127c0-1.512 1.21-2.708 2.74-2.708 1.53 0 2.74 1.196 2.74 2.708v11.392c0 7.454-4.235 11.111-10.926 11.111-6.69 0-10.782-3.692-10.782-10.936" mask="url(#prefix__f)"/>
            <g>
                <mask id="prefix__h" fill="#fff">
                    <use xlink:href="#prefix__g"/>
                </mask>
                <path fill="#FFF" fill-rule="nonzero" d="M59.562 54.127c0-1.512 1.21-2.708 2.74-2.708 1.53 0 2.74 1.196 2.74 2.708v19.62c0 1.512-1.21 2.708-2.74 2.708-1.53 0-2.74-1.196-2.74-2.708v-19.62z" mask="url(#prefix__h)"/>
            </g>
            <g>
                <mask id="prefix__j" fill="#fff">
                    <use xlink:href="#prefix__i"/>
                </mask>
                <path fill="#FFF" fill-rule="nonzero" d="M67.89 64.007v-.07c0-6.997 5.516-12.729 13.06-12.729 3.773 0 6.264.844 8.506 2.391.534.387 1.14 1.125 1.14 2.18 0 1.477-1.21 2.673-2.706 2.673-.783 0-1.28-.281-1.672-.563-1.494-1.055-3.096-1.688-5.445-1.688-3.986 0-7.153 3.481-7.153 7.665v.07c0 4.501 3.132 7.807 7.545 7.807 1.993 0 3.772-.492 5.16-1.477V66.75h-3.7c-1.317 0-2.386-1.02-2.386-2.32 0-1.302 1.068-2.357 2.385-2.357h6.264c1.53 0 2.74 1.196 2.74 2.708v5.977c0 1.582-.605 2.673-1.921 3.446-2.03 1.23-4.983 2.461-8.72 2.461-7.76 0-13.098-5.38-13.098-12.658" mask="url(#prefix__j)"/>
            </g>
            <g>
                <mask id="prefix__l" fill="#fff">
                    <use xlink:href="#prefix__k"/>
                </mask>
                <path fill="#FFF" fill-rule="nonzero" d="M93.514 64.007v-.07c0-6.997 5.587-12.729 13.274-12.729 7.687 0 13.203 5.662 13.203 12.658v.07c0 6.998-5.587 12.73-13.274 12.73-7.687 0-13.203-5.662-13.203-12.659m20.748 0v-.07c0-4.22-3.132-7.736-7.545-7.736-4.414 0-7.474 3.446-7.474 7.665v.07c0 4.22 3.131 7.736 7.545 7.736 4.413 0 7.474-3.445 7.474-7.665" mask="url(#prefix__l)"/>
            </g>
            <g>
                <mask id="prefix__n" fill="#fff">
                    <use xlink:href="#prefix__m"/>
                </mask>
                <path fill="#FFF" fill-rule="nonzero" d="M65.612 44.88c0 1.83-1.483 3.312-3.311 3.312-1.83 0-3.312-1.483-3.312-3.311 0-1.829 1.482-3.312 3.312-3.312 1.829 0 3.311 1.483 3.311 3.312" mask="url(#prefix__n)"/>
            </g>
        </g>
    </g>
</svg>
